<?xml version="1.0" encoding="UTF-8"?> <svg xmlns="http://www.w3.org/2000/svg" width="236" height="79" viewBox="0 0 236 79" fill="none"> <path d="M60.0121 0H19.7602C8.84694 0 0 8.76129 0 19.5689V59.4311C0 70.2387 8.84694 79 19.7602 79H60.0121C70.9253 79 79.7722 70.2387 79.7722 59.4311V19.5689C79.7722 8.76129 70.9253 0 60.0121 0Z" fill="white"></path> <path d="M16.1829 31.2686V47.7315C16.1913 49.3426 16.626 50.9234 17.4435 52.3163C18.2611 53.7092 19.4329 54.8656 20.8423 55.6702L35.2316 63.8967C36.6467 64.7058 38.252 65.1318 39.8861 65.1318C41.5201 65.1318 43.1254 64.7058 44.5405 63.8967L58.9398 55.6702C60.3467 54.8635 61.516 53.7064 62.3316 52.3138C63.1473 50.9211 63.5808 49.3414 63.5893 47.7315V31.2686C63.5818 29.6585 63.1487 28.0784 62.333 26.6856C61.5172 25.2928 60.3474 24.1358 58.9398 23.3299L44.5405 15.0935C43.1254 14.2844 41.5201 13.8584 39.8861 13.8584C38.252 13.8584 36.6467 14.2844 35.2316 15.0935L20.8423 23.2902C19.4257 24.0967 18.2489 25.259 17.4308 26.6599C16.6128 28.0607 16.1823 29.6504 16.1829 31.2686Z" fill="url(#paint0_linear)"></path> <path d="M30.6622 39.4851L36.3939 33.8189C36.7457 33.466 36.943 32.9901 36.943 32.4941C36.943 31.9982 36.7457 31.5222 36.3939 31.1694L36.1534 30.9411C35.9791 30.7665 35.7716 30.6279 35.5428 30.5332C35.3141 30.4386 35.0686 30.3899 34.8207 30.3899C34.5728 30.3899 34.3273 30.4386 34.0986 30.5332C33.8698 30.6279 33.6622 30.7665 33.488 30.9411L26.4737 37.8875L26.2432 38.1256C26.0657 38.2975 25.9246 38.5028 25.8283 38.7295C25.732 38.9561 25.6824 39.1996 25.6824 39.4455C25.6824 39.6913 25.732 39.9348 25.8283 40.1614C25.9246 40.3881 26.0657 40.5934 26.2432 40.7653L26.4737 41.0034L33.488 47.9498C33.8426 48.2976 34.3216 48.4928 34.8207 48.4928C35.3198 48.4928 35.7988 48.2976 36.1534 47.9498L36.3939 47.7116C36.7451 47.3604 36.9422 46.8861 36.9422 46.3918C36.9422 45.8975 36.7451 45.4232 36.3939 45.072L30.6622 39.4851Z" fill="white"></path> <path d="M53.5891 38.1653L53.3486 37.9271L46.3344 30.9807C46.1601 30.8061 45.9526 30.6675 45.7238 30.5729C45.495 30.4782 45.2496 30.4295 45.0017 30.4295C44.7538 30.4295 44.5083 30.4782 44.2795 30.5729C44.0508 30.6675 43.8432 30.8061 43.669 30.9807L43.4285 31.209C43.0766 31.5618 42.8793 32.0378 42.8793 32.5337C42.8793 33.0297 43.0766 33.5056 43.4285 33.8585L49.1 39.4851L43.3683 45.1612C43.0171 45.5124 42.8201 45.9867 42.8201 46.481C42.8201 46.9753 43.0171 47.4497 43.3683 47.8009L43.6088 48.039C43.9635 48.3869 44.4424 48.582 44.9415 48.582C45.4407 48.582 45.9196 48.3869 46.2743 48.039L53.2885 41.0927L53.529 40.8545C53.7041 40.6812 53.8431 40.4755 53.9378 40.249C54.0326 40.0226 54.0814 39.7798 54.0814 39.5347C54.0814 39.2895 54.0326 39.0468 53.9378 38.8203C53.8431 38.5939 53.7041 38.3881 53.529 38.2149L53.5891 38.1653Z" fill="white"></path> <path d="M166.138 22.4763H170.407C170.577 22.4763 170.74 22.5432 170.86 22.6623C170.98 22.7814 171.048 22.943 171.048 23.1114V27.5968C171.048 27.7652 171.115 27.9268 171.236 28.0459C171.356 28.165 171.519 28.2319 171.689 28.2319H172.25C172.364 28.2299 172.476 28.1987 172.574 28.1413C172.673 28.0839 172.754 28.0023 172.811 27.9044L175.717 22.7939C175.772 22.6966 175.852 22.6156 175.949 22.5597C176.046 22.5038 176.156 22.475 176.269 22.4763H180.788C180.905 22.4743 181.021 22.5044 181.122 22.5631C181.224 22.6219 181.307 22.7071 181.363 22.8096C181.419 22.912 181.445 23.0276 181.439 23.1438C181.433 23.2601 181.395 23.3724 181.329 23.4687L177.08 30.2959V30.3555L181.97 37.8972C182.036 37.9935 182.074 38.1058 182.08 38.2221C182.086 38.3383 182.06 38.4539 182.004 38.5563C181.948 38.6588 181.865 38.744 181.764 38.8028C181.662 38.8615 181.547 38.8916 181.429 38.8896H176.649C176.537 38.8909 176.426 38.8621 176.329 38.8062C176.232 38.7503 176.152 38.6693 176.098 38.572L172.972 33.2035C172.914 33.1068 172.832 33.0266 172.734 32.9709C172.635 32.9152 172.524 32.8859 172.411 32.8859H171.689C171.519 32.8859 171.356 32.9528 171.236 33.072C171.115 33.1911 171.048 33.3526 171.048 33.521V38.2049C171.049 38.2886 171.034 38.3718 171.002 38.4495C170.97 38.5271 170.923 38.5977 170.863 38.6569C170.803 38.7162 170.732 38.7629 170.654 38.7944C170.575 38.8258 170.491 38.8413 170.407 38.84H166.138C165.968 38.84 165.805 38.7731 165.684 38.6539C165.564 38.5348 165.497 38.3733 165.497 38.2049V23.1114C165.497 22.943 165.564 22.7814 165.684 22.6623C165.805 22.5432 165.968 22.4763 166.138 22.4763Z" fill="white"></path> <path d="M191.66 22.0893C196.891 22.0893 201.059 25.5625 201.059 30.7028C201.059 35.8431 196.891 39.2269 191.69 39.2269C186.489 39.2269 182.371 35.8232 182.371 30.7028C182.371 25.5823 186.489 22.0893 191.66 22.0893ZM191.66 34.6523C192.176 34.6549 192.686 34.552 193.16 34.3502C193.634 34.1484 194.06 33.8519 194.413 33.4793C194.766 33.1067 195.037 32.6661 195.21 32.1849C195.383 31.7037 195.453 31.1924 195.418 30.6829C195.455 30.1714 195.386 29.6576 195.214 29.1738C195.043 28.6899 194.772 28.2463 194.419 27.8706C194.067 27.4949 193.64 27.1953 193.165 26.9904C192.69 26.7855 192.178 26.6798 191.66 26.6798C191.142 26.6798 190.63 26.7855 190.155 26.9904C189.68 27.1953 189.253 27.4949 188.9 27.8706C188.548 28.2463 188.277 28.6899 188.105 29.1738C187.934 29.6576 187.865 30.1714 187.902 30.6829C187.866 31.1949 187.938 31.7088 188.112 32.192C188.287 32.6752 188.561 33.1173 188.917 33.4903C189.273 33.8634 189.703 34.1592 190.181 34.3592C190.658 34.5592 191.172 34.659 191.69 34.6523H191.66Z" fill="white"></path> <path d="M201.61 34.7318C201.609 34.5904 201.658 34.453 201.747 34.3428C201.836 34.2325 201.962 34.1562 202.101 34.1265C203.424 33.8189 204.716 32.7372 204.716 27.7259V23.0917C204.719 22.9276 204.787 22.7712 204.905 22.6561C205.023 22.541 205.182 22.4765 205.348 22.4765H217.633C217.798 22.4765 217.957 22.541 218.076 22.6561C218.194 22.7712 218.261 22.9276 218.264 23.0917V38.2249C218.261 38.3889 218.194 38.5454 218.076 38.6605C217.957 38.7756 217.798 38.8401 217.633 38.8401H213.334C213.169 38.8401 213.011 38.7753 212.895 38.6599C212.778 38.5445 212.713 38.388 212.713 38.2249V27.4481C212.71 27.284 212.642 27.1275 212.524 27.0124C212.406 26.8973 212.247 26.8328 212.081 26.8328H209.947V27.7855C209.947 34.2257 208.153 38.7012 202.251 39.0187C202.168 39.0201 202.085 39.0049 202.007 38.974C201.929 38.9432 201.858 38.8974 201.799 38.8392C201.739 38.781 201.691 38.7116 201.659 38.6351C201.627 38.5586 201.61 38.4765 201.61 38.3936V34.7318Z" fill="white"></path> <path d="M229.597 28.6387H230.078V28.3509C230.078 26.9914 228.956 26.5449 227.733 26.5449C226.313 26.5959 224.932 27.0132 223.725 27.7555C223.65 27.7966 223.568 27.8222 223.483 27.8309C223.398 27.8396 223.313 27.8312 223.231 27.8061C223.15 27.7811 223.074 27.74 223.009 27.6852C222.944 27.6305 222.891 27.5632 222.853 27.4876L221.45 24.7091C221.381 24.569 221.367 24.4088 221.409 24.2587C221.452 24.1087 221.548 23.9793 221.681 23.8953C223.66 22.7432 225.908 22.1208 228.204 22.0893C232.763 22.0893 235.589 24.6098 235.589 28.7677V38.2148C235.589 38.2969 235.573 38.3782 235.541 38.454C235.509 38.5299 235.463 38.5988 235.404 38.6568C235.346 38.7149 235.276 38.7609 235.199 38.7924C235.123 38.8238 235.041 38.8399 234.958 38.8399H230.519V37.8476C230.521 37.516 230.541 37.1847 230.579 36.8553H230.519C229.945 37.6042 229.202 38.2097 228.349 38.6232C227.497 39.0368 226.558 39.2469 225.609 39.2369C224.92 39.2889 224.227 39.1991 223.574 38.9732C222.922 38.7472 222.324 38.39 221.817 37.924C221.311 37.458 220.907 36.8932 220.632 36.2653C220.357 35.6373 220.216 34.9598 220.218 34.2752C220.258 29.8494 225.519 28.6387 229.597 28.6387ZM227.312 35.1286C228.064 35.0841 228.772 34.7616 229.295 34.225C229.818 33.6884 230.119 32.9767 230.138 32.231V31.7547H229.627C227.923 31.7547 225.739 32.2012 225.739 33.7393C225.739 33.9364 225.781 34.1312 225.863 34.311C225.944 34.4908 226.063 34.6516 226.212 34.7827C226.36 34.9139 226.535 35.0125 226.725 35.0721C226.914 35.1317 227.115 35.151 227.312 35.1286Z" fill="white"></path> <path d="M97.4984 41.7973H99.7029L105.435 54.4596C105.926 55.571 106.437 57.0992 106.437 57.0992H106.497C106.497 57.0992 107.048 55.571 107.499 54.4596L113.23 41.7973H115.425L117.239 63.3608H115.104L113.892 48.2674C113.802 47.0964 113.832 45.2904 113.832 45.2904H113.772C113.772 45.2904 113.12 47.1957 112.629 48.2674L107.509 59.3419H105.505L100.394 48.2674C99.8933 47.1957 99.2119 45.2011 99.2119 45.2011H99.2019C99.2019 45.2011 99.2019 47.0964 99.1418 48.2674L97.8992 63.3608H95.7649L97.4984 41.7973Z" fill="#EFEFEF"></path> <path d="M129.123 47.5627C133.431 47.5627 135.636 50.8474 135.636 54.6778C135.631 55.0096 135.607 55.3408 135.566 55.6701H123.611C123.573 56.4691 123.701 57.2674 123.987 58.0154C124.273 58.7633 124.712 59.4448 125.276 60.0173C125.84 60.5899 126.518 61.0412 127.265 61.3433C128.013 61.6454 128.816 61.7916 129.624 61.773C131.375 61.7435 133.057 61.092 134.363 59.9372L135.365 61.5348C133.758 62.8963 131.719 63.655 129.604 63.6783C128.522 63.7169 127.444 63.5349 126.436 63.1436C125.428 62.7522 124.513 62.1598 123.746 61.4032C122.979 60.6467 122.378 59.742 121.979 58.7455C121.58 57.749 121.392 56.682 121.427 55.6106C121.417 50.6092 124.914 47.5627 129.123 47.5627ZM133.492 54.0625C133.371 50.8474 131.387 49.2795 129.063 49.2795C127.727 49.2707 126.437 49.7565 125.445 50.6415C124.454 51.5265 123.832 52.7467 123.702 54.0625H133.492Z" fill="#EFEFEF"></path> <path d="M145.666 67.8956C148.673 67.8956 151.088 66.5163 151.088 63.0828V61.5248C151.092 61.1411 151.136 60.7588 151.218 60.3836H151.148C150.694 61.2861 149.983 62.0375 149.104 62.5452C148.224 63.053 147.214 63.2951 146.198 63.2416C142.019 63.2416 139.253 59.9569 139.253 55.3029C139.253 50.6488 141.829 47.513 146.007 47.513C147.039 47.4415 148.07 47.6562 148.985 48.133C149.9 48.6098 150.663 49.3298 151.188 50.2122H151.248C151.203 50.0405 151.183 49.8635 151.188 49.6862V47.9298H153.192V62.9935C153.192 67.8956 149.534 69.8009 145.687 69.8009C143.915 69.7911 142.173 69.3589 140.606 68.5407L141.388 66.8537C142.715 67.5211 144.178 67.8776 145.666 67.8956ZM146.508 61.3958C148.983 61.3958 151.148 59.8974 151.148 55.3525C151.148 50.8076 148.983 49.3985 146.228 49.3985C143.221 49.3985 141.398 51.6114 141.398 55.293C141.398 58.9745 143.442 61.3958 146.508 61.3958Z" fill="#EFEFEF"></path> <path d="M166.98 53.8442H167.911V53.4175C167.911 50.4405 166.268 49.4482 164.064 49.4482C162.467 49.4698 160.918 49.9869 159.635 50.9267L158.683 49.3291C160.278 48.1665 162.213 47.5531 164.194 47.5826C167.941 47.5826 170.016 49.6367 170.016 53.5366V63.46H168.012V61.5249C168.008 61.0932 168.038 60.6619 168.102 60.2349H168.042C167.601 61.2568 166.868 62.1289 165.933 62.7441C164.999 63.3594 163.903 63.6909 162.781 63.6982C160.146 63.6982 157.51 62.16 157.51 59.183C157.5 54.1518 164.003 53.8442 166.98 53.8442ZM163.142 61.9814C166.148 61.9814 167.911 58.9151 167.911 56.2159V55.5113H167.01C164.595 55.5113 159.635 55.6007 159.635 59.0342C159.635 60.473 160.817 61.9814 163.142 61.9814Z" fill="#EFEFEF"></path> <path d="M182.621 47.5626C183.672 47.5356 184.717 47.7165 185.696 48.0948C186.675 48.4731 187.568 49.0411 188.323 49.7656L187.241 51.3335C186.028 50.1372 184.393 49.4541 182.681 49.4282C181.065 49.5007 179.54 50.1898 178.425 51.3513C177.31 52.5128 176.693 54.0564 176.702 55.6588C176.711 57.2611 177.346 58.7978 178.474 59.9468C179.601 61.0959 181.134 61.768 182.752 61.8225C183.688 61.8244 184.614 61.6381 185.476 61.2748C186.337 60.9114 187.115 60.3787 187.762 59.7088L188.764 61.2767C187.971 62.0701 187.024 62.6963 185.981 63.1175C184.937 63.5388 183.818 63.7464 182.691 63.7278C181.596 63.7658 180.503 63.5849 179.479 63.1959C178.456 62.8068 177.522 62.2176 176.733 61.4633C175.944 60.709 175.317 59.8051 174.888 58.8055C174.46 57.8059 174.239 56.7311 174.239 55.6452C174.239 54.5593 174.46 53.4845 174.888 52.4849C175.317 51.4854 175.944 50.5815 176.733 49.8272C177.522 49.0729 178.456 48.4836 179.479 48.0946C180.503 47.7055 181.596 47.5246 182.691 47.5626H182.621Z" fill="#EFEFEF"></path> <path d="M199.696 47.5628C201.313 47.5727 202.89 48.0575 204.228 48.9556C205.566 49.8538 206.605 51.125 207.213 52.6083C207.821 54.0915 207.97 55.7201 207.643 57.2878C207.316 58.8554 206.526 60.2916 205.374 61.4145C204.222 62.5373 202.759 63.2964 201.171 63.5954C199.583 63.8944 197.941 63.72 196.453 63.0943C194.966 62.4686 193.699 61.4196 192.813 60.0804C191.928 58.7411 191.464 57.1717 191.479 55.571C191.47 54.5057 191.676 53.4494 192.088 52.465C192.499 51.4805 193.106 50.5881 193.872 49.8409C194.639 49.0936 195.55 48.5068 196.55 48.1155C197.551 47.7241 198.621 47.5361 199.696 47.5628ZM199.696 61.8227C200.942 61.872 202.175 61.5519 203.236 60.9033C204.297 60.2547 205.138 59.3072 205.652 58.1821C206.166 57.057 206.329 55.8056 206.121 54.5881C205.912 53.3706 205.341 52.2425 204.481 51.3482C203.621 50.454 202.512 49.8344 201.294 49.5687C200.076 49.303 198.806 49.4034 197.646 49.857C196.486 50.3105 195.49 51.0967 194.784 52.1147C194.078 53.1326 193.695 54.3361 193.684 55.571C193.656 56.3745 193.79 57.1755 194.078 57.927C194.367 58.6786 194.804 59.3656 195.364 59.9478C195.924 60.53 196.595 60.9957 197.339 61.3177C198.083 61.6396 198.884 61.8113 199.696 61.8227Z" fill="#EFEFEF"></path> <path d="M212.482 47.9299H214.566V50.3512C214.567 50.7713 214.523 51.1903 214.436 51.6015H214.496C214.984 50.4775 215.779 49.5106 216.792 48.8094C217.804 48.1082 218.994 47.7005 220.228 47.6322C223.114 47.6322 224.597 48.9817 225.038 51.4924H225.098C225.597 50.3854 226.398 49.438 227.41 48.7562C228.422 48.0744 229.606 47.6852 230.829 47.6322C234.607 47.6322 236 49.8054 236 53.5862V63.4004H233.896V54.0625C233.896 51.5221 233.365 49.4978 230.549 49.4978C227.413 49.4978 225.308 52.7129 225.308 55.9083V63.3607H223.204V54.0625C223.204 51.7305 222.863 49.4978 219.917 49.4978C216.761 49.4978 214.596 52.7725 214.596 55.9083V63.3607H212.482V47.9299Z" fill="#EFEFEF"></path> <path d="M96.8472 33.9775H99.3022V20.5214H96.8472V15.659H107.298V20.5214H104.843V33.9775H107.298V38.84H96.8472V33.9775Z" fill="white"></path> <path d="M116.697 20.5215H114.804C114.706 20.5104 114.607 20.5213 114.515 20.5533C114.422 20.5852 114.338 20.6375 114.269 20.7062C114.199 20.7749 114.146 20.8582 114.114 20.95C114.082 21.0417 114.071 21.1395 114.082 21.236V22.4963H109.002V17.8621C109.002 16.2148 109.593 15.6293 111.266 15.6293H128C129.664 15.6293 130.255 16.2148 130.255 17.8621V22.4665H125.185V21.236C125.194 21.1399 125.182 21.0429 125.149 20.952C125.116 20.8612 125.063 20.7786 124.994 20.7104C124.925 20.6421 124.842 20.5897 124.75 20.5571C124.658 20.5245 124.56 20.5123 124.463 20.5215H122.559V38.8401H116.697V20.5215Z" fill="white"></path> <path d="M134.674 16.1552H139.053C139.212 16.1552 139.365 16.2179 139.478 16.3296C139.591 16.4413 139.654 16.5927 139.654 16.7506V33.4517C139.654 33.6096 139.717 33.761 139.83 33.8727C139.943 33.9843 140.096 34.0471 140.255 34.0471H144.794C144.954 34.0471 145.107 33.9843 145.219 33.8727C145.332 33.761 145.396 33.6096 145.396 33.4517V16.7506C145.396 16.6716 145.411 16.5933 145.442 16.5204C145.473 16.4476 145.518 16.3815 145.575 16.326C145.632 16.2706 145.7 16.227 145.774 16.1976C145.848 16.1683 145.927 16.1539 146.007 16.1552H150.386C150.545 16.1552 150.698 16.2179 150.811 16.3296C150.924 16.4413 150.987 16.5927 150.987 16.7506V33.4517C150.987 33.6096 151.05 33.761 151.163 33.8727C151.276 33.9843 151.429 34.0471 151.588 34.0471H156.127C156.287 34.0471 156.44 33.9843 156.553 33.8727C156.665 33.761 156.729 33.6096 156.729 33.4517V16.7506C156.729 16.6716 156.744 16.5933 156.775 16.5204C156.806 16.4476 156.851 16.3815 156.908 16.326C156.965 16.2706 157.033 16.227 157.107 16.1976C157.181 16.1683 157.26 16.1539 157.34 16.1552H161.719C161.878 16.1552 162.031 16.2179 162.144 16.3296C162.257 16.4413 162.32 16.5927 162.32 16.7506V38.1653C162.32 38.3232 162.257 38.4746 162.144 38.5863C162.031 38.6979 161.878 38.7607 161.719 38.7607H134.664C134.584 38.762 134.505 38.7476 134.431 38.7182C134.356 38.6889 134.289 38.6452 134.232 38.5898C134.175 38.5344 134.13 38.4683 134.099 38.3954C134.068 38.3225 134.052 38.2443 134.052 38.1653V16.7506C134.052 16.6707 134.069 16.5916 134.1 16.5181C134.132 16.4445 134.178 16.378 134.236 16.3224C134.294 16.2669 134.362 16.2234 134.438 16.1947C134.513 16.166 134.593 16.1525 134.674 16.1552Z" fill="white"></path> <defs> <linearGradient id="paint0_linear" x1="15.7333" y1="39.4999" x2="63.9167" y2="39.4999" gradientUnits="userSpaceOnUse"> <stop stop-color="#462F90"></stop> <stop offset="1" stop-color="#322177"></stop> </linearGradient> </defs> </svg> 